<svg width="24" height="24" viewBox="0 0 24 24" fill="none" xmlns="http://www.w3.org/2000/svg">
<path fill-rule="evenodd" clip-rule="evenodd" d="M2.98972 9.35789C2.98972 9.77583 2.63448 10.124 2.20812 10.124H1.78177C1.35541 10.124 1 9.77583 1 9.35789C1 8.93996 1.35541 8.59174 1.78177 8.59174H2.20812C2.63448 8.59174 2.98972 8.93996 2.98972 9.35789ZM22.2468 9.14893C24.0943 12.98 22.3889 17.5773 18.3385 19.3883C14.4303 21.1297 9.74041 19.458 7.96387 15.6269C7.60863 14.8607 7.39545 14.0249 7.32433 13.189H5.76097C5.33461 13.189 4.97937 12.8406 4.97937 12.4227C4.97937 12.0047 5.33461 11.6565 5.76097 11.6565H8.03499C8.46134 11.6565 8.81658 11.3083 8.81658 10.8904C8.81658 10.4724 8.46134 10.124 8.03499 10.124H4.41095C3.9846 10.124 3.62919 9.77583 3.62919 9.35789C3.62919 8.93996 3.9846 8.59174 4.41095 8.59174H9.45612C9.88247 8.59174 10.2377 8.24335 10.2377 7.82542C10.2377 7.40748 9.88247 7.05926 9.45612 7.05926H7.39545C6.75592 7.05926 6.18733 6.57162 6.18733 5.87517C6.18733 5.24827 6.6848 4.69092 7.39545 4.69092H15.4251C18.2675 4.83034 20.9677 6.43236 22.2468 9.14893ZM13.2663 8.38057C11.0194 9.39196 10.0342 11.9974 11.066 14.1999C12.0978 16.4024 14.7557 17.3681 17.0026 16.3567C19.2497 15.3453 20.2347 12.7399 19.2029 10.5374C18.1712 8.33493 15.5132 7.36917 13.2663 8.38057ZM18.2354 12.2349L16.8142 9.86656C16.7431 9.7273 16.6722 9.65759 16.53 9.7273H13.7586C13.6877 9.7273 13.5455 9.7273 13.4745 9.86656L12.0532 12.2349C11.9823 12.3741 11.9823 12.4438 12.0532 12.5831L13.4745 14.9514C13.5455 15.021 13.6166 15.0907 13.7586 15.0907H16.53C16.6011 15.0907 16.7431 15.0907 16.8142 14.9514L18.2354 12.5831C18.3065 12.4438 18.3065 12.3741 18.2354 12.2349Z" fill="white"/>
</svg>
