<svg width="35" height="150" viewBox="0 0 35 150" fill="none" xmlns="http://www.w3.org/2000/svg">
<path fill-rule="evenodd" clip-rule="evenodd" d="M34.8528 149.943C26.2983 132.43 20.6511 112.535 18.7297 91.2603C16.3877 92.376 13.7668 93 11 93C9.40356 93 7.85571 92.792 6.38184 92.4019C9.9292 114.509 20.1248 134.395 34.8528 149.943ZM34.8564 0.0493164C26.3 17.564 20.6516 37.4624 18.7297 58.7397C16.3877 57.624 13.7668 57 11 57C9.40332 57 7.85522 57.208 6.38135 57.5981C9.92847 35.4878 20.1257 15.5991 34.8564 0.0493164ZM11 86C17.0752 86 22 81.0752 22 75C22 68.9248 17.0752 64 11 64C4.9248 64 0 68.9248 0 75C0 81.0752 4.9248 86 11 86Z" fill="#C4C4C4"/>
</svg>
