<svg width="40" height="27" viewBox="0 0 40 27" fill="none" xmlns="http://www.w3.org/2000/svg">
<path d="M35.3335 0.083252C36.3502 0.083252 37.3252 0.48712 38.0441 1.20601C38.763 1.9249 39.1668 2.89992 39.1668 3.91659V23.0833C39.1668 24.0999 38.763 25.0749 38.0441 25.7938C37.3252 26.5127 36.3502 26.9166 35.3335 26.9166H4.66683C3.65017 26.9166 2.67514 26.5127 1.95625 25.7938C1.23736 25.0749 0.833496 24.0999 0.833496 23.0833V3.91659C0.833496 1.78909 2.53933 0.083252 4.66683 0.083252H35.3335ZM6.5835 21.1666H33.4168L24.7918 9.66659L18.0835 18.2916L13.2918 12.5416L6.5835 21.1666Z" fill="white"/>
</svg>
